<mxfile host="app.diagrams.net" modified="2023-06-09T10:23:44.917Z" agent="Mozilla/5.0 (X11; Ubuntu; Linux x86_64; rv:109.0) Gecko/20100101 Firefox/114.0" etag="LBxBmDopEgc5-dHmGNJQ" version="21.3.7" type="device">
  <diagram id="jHkrOPYCrmynOUKTDlaP" name="Page-1">
    <mxGraphModel dx="1434" dy="842" grid="1" gridSize="10" guides="1" tooltips="1" connect="1" arrows="1" fold="1" page="1" pageScale="1" pageWidth="850" pageHeight="1100" math="0" shadow="0">
      <root>
        <mxCell id="0" />
        <mxCell id="1" parent="0" />
        <mxCell id="IZiWBFXiaey_TxyXL_8r-38" value="&lt;div&gt;Public&amp;nbsp;&amp;nbsp;&amp;nbsp;&amp;nbsp;&amp;nbsp;&amp;nbsp;&amp;nbsp;&amp;nbsp;&amp;nbsp;&amp;nbsp;&amp;nbsp;&amp;nbsp;&amp;nbsp;&amp;nbsp;&amp;nbsp;&amp;nbsp;&amp;nbsp;&amp;nbsp;&amp;nbsp;&amp;nbsp;&amp;nbsp;&amp;nbsp;&amp;nbsp;&amp;nbsp;&amp;nbsp;&amp;nbsp;&amp;nbsp;&amp;nbsp;&amp;nbsp;&amp;nbsp;&amp;nbsp;&amp;nbsp;&amp;nbsp;&amp;nbsp;&amp;nbsp;&amp;nbsp;&amp;nbsp;&amp;nbsp;&amp;nbsp;&amp;nbsp;&amp;nbsp;&amp;nbsp;&amp;nbsp;&amp;nbsp;&amp;nbsp;&amp;nbsp;&amp;nbsp;&amp;nbsp;&amp;nbsp;&amp;nbsp;&amp;nbsp;&amp;nbsp;&amp;nbsp;&amp;nbsp;&amp;nbsp;&amp;nbsp;&amp;nbsp; &lt;br&gt;&lt;/div&gt;&lt;div&gt;&lt;br&gt;&lt;/div&gt;&lt;div&gt;&lt;br&gt;&lt;/div&gt;&lt;div&gt;&lt;br&gt;&lt;/div&gt;&lt;div&gt;&lt;br&gt;&lt;/div&gt;&lt;div&gt;&lt;br&gt;&lt;/div&gt;&lt;div&gt;&lt;br&gt;&lt;/div&gt;&lt;div&gt;&lt;br&gt;&lt;/div&gt;" style="rounded=0;whiteSpace=wrap;html=1;" parent="1" vertex="1">
          <mxGeometry x="410" y="410" width="230" height="120" as="geometry" />
        </mxCell>
        <mxCell id="IZiWBFXiaey_TxyXL_8r-37" value="&lt;div&gt;Canis Major - Domain&lt;br&gt;&lt;/div&gt;&lt;div&gt;&lt;br&gt;&lt;/div&gt;&lt;div&gt;&lt;br&gt;&lt;/div&gt;&lt;div&gt;&lt;br&gt;&lt;/div&gt;&lt;div&gt;&lt;br&gt;&lt;/div&gt;&lt;div&gt;&lt;br&gt;&lt;/div&gt;&lt;div&gt;&lt;br&gt;&lt;/div&gt;&lt;div&gt;&lt;br&gt;&lt;/div&gt;&lt;div&gt;&lt;br&gt;&lt;/div&gt;&lt;div&gt;&lt;br&gt;&lt;/div&gt;&lt;div&gt;&lt;br&gt;&lt;/div&gt;&lt;div&gt;&lt;br&gt;&lt;/div&gt;&lt;div&gt;&lt;br&gt;&lt;/div&gt;&lt;div&gt;&lt;br&gt;&lt;/div&gt;&lt;div&gt;&lt;br&gt;&lt;/div&gt;&lt;div&gt;&lt;br&gt;&lt;/div&gt;&lt;div&gt;&lt;br&gt;&lt;/div&gt;&lt;div&gt;&lt;br&gt;&lt;/div&gt;&lt;div&gt;&lt;br&gt;&lt;/div&gt;&lt;div&gt;&lt;br&gt;&lt;/div&gt;" style="rounded=0;whiteSpace=wrap;html=1;" parent="1" vertex="1">
          <mxGeometry x="340" y="69" width="330" height="291" as="geometry" />
        </mxCell>
        <mxCell id="IZiWBFXiaey_TxyXL_8r-36" value="&lt;div align=&quot;left&quot;&gt;Client-Domain&amp;nbsp;&amp;nbsp;&amp;nbsp;&amp;nbsp;&amp;nbsp;&amp;nbsp;&amp;nbsp;&amp;nbsp;&amp;nbsp;&amp;nbsp;&amp;nbsp;&amp;nbsp;&amp;nbsp;&amp;nbsp;&amp;nbsp;&amp;nbsp;&amp;nbsp;&amp;nbsp;&amp;nbsp;&amp;nbsp;&amp;nbsp;&amp;nbsp;&amp;nbsp;&amp;nbsp;&amp;nbsp;&amp;nbsp;&amp;nbsp;&amp;nbsp;&amp;nbsp;&amp;nbsp;&amp;nbsp;&amp;nbsp;&amp;nbsp;&amp;nbsp;&amp;nbsp; &lt;br&gt;&lt;/div&gt;&lt;div&gt;&lt;br&gt;&lt;/div&gt;&lt;div&gt;&lt;br&gt;&lt;/div&gt;&lt;div&gt;&lt;br&gt;&lt;/div&gt;&lt;div&gt;&lt;br&gt;&lt;/div&gt;&lt;div&gt;&lt;br&gt;&lt;/div&gt;&lt;div&gt;&lt;br&gt;&lt;/div&gt;&lt;div&gt;&lt;br&gt;&lt;/div&gt;&lt;div&gt;&lt;br&gt;&lt;/div&gt;&lt;div&gt;&lt;br&gt;&lt;/div&gt;" style="rounded=0;whiteSpace=wrap;html=1;" parent="1" vertex="1">
          <mxGeometry x="30" y="139" width="200" height="151" as="geometry" />
        </mxCell>
        <mxCell id="IZiWBFXiaey_TxyXL_8r-2" value="ETH-Compatible Node" style="rounded=1;whiteSpace=wrap;html=1;" parent="1" vertex="1">
          <mxGeometry x="457.5" y="440" width="130" height="60" as="geometry" />
        </mxCell>
        <mxCell id="IZiWBFXiaey_TxyXL_8r-5" value="Client" style="rounded=1;whiteSpace=wrap;html=1;" parent="1" vertex="1">
          <mxGeometry x="70" y="179.5" width="120" height="70" as="geometry" />
        </mxCell>
        <mxCell id="n6Bw79Q_llv1yDib1XSp-5" value="" style="image;aspect=fixed;html=1;points=[];align=center;fontSize=12;image=img/lib/azure2/blockchain/Azure_Blockchain_Service.svg;" vertex="1" parent="1">
          <mxGeometry x="567.5" y="420" width="38" height="38" as="geometry" />
        </mxCell>
        <mxCell id="n6Bw79Q_llv1yDib1XSp-8" value="" style="group" vertex="1" connectable="0" parent="1">
          <mxGeometry x="460" y="100" width="158" height="100" as="geometry" />
        </mxCell>
        <mxCell id="IZiWBFXiaey_TxyXL_8r-3" value="&lt;div&gt;ContextBroker&lt;/div&gt;&lt;div&gt;(f.e. orion-ld)&lt;br&gt;&lt;/div&gt;" style="rounded=1;whiteSpace=wrap;html=1;" parent="n6Bw79Q_llv1yDib1XSp-8" vertex="1">
          <mxGeometry y="30" width="130" height="70" as="geometry" />
        </mxCell>
        <mxCell id="n6Bw79Q_llv1yDib1XSp-2" value="" style="shape=image;verticalLabelPosition=bottom;labelBackgroundColor=default;verticalAlign=top;aspect=fixed;imageAspect=0;image=data:image/jpeg,/9j/4AAQSkZJRgABAQAAAQABAAD/2wCEAAkGBxAPEBIQEhIVFRUWDxUWDxcWDw8SGBEYFRIWFhUYFRUYHSggGBolHRUVITEhJSkrLi4uFx81ODMsNygtLisBCgoKDg0OGxAQGSsdIB0tKy0tLSstLS0tLSstLSstLS0tLS0tLS0tLSstLSsrLS0tKy0rLS0rLS0tLS0tLS0rLf/AABEIAKMAowMBIgACEQEDEQH/xAAcAAABBQEBAQAAAAAAAAAAAAAAAQMEBQYHAgj/xAA/EAABAwIDBQQIAwYGAwAAAAABAAIDBBEFEiEGMUFRYRMicYEHMlKRobHB0ULh8BQjM1NighZDcnOTsiQ0Y//EABkBAQADAQEAAAAAAAAAAAAAAAACAwQBBf/EACkRAAMAAgECBQQDAQEAAAAAAAABAgMRIRIxBBMiQVEyYXGhQrHBYiP/2gAMAwEAAhEDEQA/AO4oQhACEIQAhCEAiChUWLbT01NcZs7/AGWm9vE7gupNvgjVzK3T0XhRdYmOXEq/1P8Ax4uB1aSOh3nysE5/h1rT36+bNxyyEfUlS6PZsq85vlLj78GzQslDS1sWsFY2YexM3U/3jVTqLaRucQ1MZp5T6ocbsf8A6JNxXHLJzkT78GgQhCiWCJUIQCIQlQCJUiVAIhKhACEIQCIKFQ4ltJDFdrO+7odB4n7KUy29IheSYW6ei8Co8U2np4Lhp7R3Jp0Hi7d81TZa6v39yPza23zcrGmwikowHSHO/hmF9ejeHmrFjmX6uX8IzvNVLcrS+WVpOIYj/wDGI+LQR83/ACU6mwqjotXfvJOFwCb9G7m+aSux2R9wzuDx1PnwVUxrnmwBJJ04klWqG1zwjJWaZfp9VfL/AMReRVU1W4tacjQNedup4parCjG3MHZgN+liveGvipWkPeC8kFwHetbcNFLlxKGVjmh1iQQLhw1VbbVelcF6man1v1fkp4ypUmSVhjlaJGHeDvHUHgVHMTm+sPDkfApyMqykmUw3LGoKp+Hua2RxkpXENjkOrqc8Gyc2cjwWqaQVRsykOY8BzHNs9pFw4KFh9S7D5G00ri6nkNqSUm/Zn+VIfkf0KKk3Y74+xrEJEqrLxEqEIBEJUIBEIQgFSJLqq2jrOyhNj3nd1v1PuXVLb0iF2pl0/YpMcxZ87+whva+U23vP2U/D8Ehpm9rNZzuN9QOgHEpnZGhFjOd98rOnM/T3qHjGI9tIQD3WkhvXqtOtvonsu553V0z52Tmn2RMr8fc7uxjKOZ3n7KBR0j6h5APVxJvZRFYYLXiB5zDuuAvzFtym56J9K5KFk8y15j4J7dnQNXSaAa2bbTxuquoqmi7IhlbuJv3neJ5dFo5KplRFIyN3eynTcVkSPzUcbdb6i3xCmEvL7P3AJ+MphPRlXMyyafAZLxkcnadAV7xSJuXNYA3HBUNLUOYbtNufVWeJy5nMPAsBHndZahq9npRlTxaa5Q3GU7NBHNG6GVuZjhZwPDqORCYjKbrMRbELb3W0HLxUult6RBZFC2xMGr30sraGpdmv/wCnMf8AOaPwPP8AMHx+eoWBM7ahroKgksebtcNDC7g9p4WVzs9jEjZP2KqI7ZrbxSfhqo+D2/1cwq8kOWaMGebXBpUJUKo0iISoQCIQhAFliNqq8SVRgB/hRsLujpLn5BnvW3XIJqvNi+ItO/MzL4RtDPqFdgXrMnjW/KaR0ai/d0II/kucPE3d9VjQVsMLPa0QaN5jczwOoH0WPIV+HvX5MPjPphrtocbJzTijJQVfoxqiZDK5jg5psQdFLrwJB27Ra5tIPZdz8CqoSlP01ZkO64Is8X9YKDl72i2ci10vsInGFeKnuHTUEXafaH3TXb9F3W0R3p8ljGVMqJ2hkZJ/CR7ifuqIzu5/ROP1haeUrx7wz7FRccrZZOXSeiRUYmTozTrxVeT+aRCsUpdiirqnyClANqIxBI4sc12allHrQP4f28x+hFQuVKpaZ3FkrHXUjWbN40+UupqgBlVF/EHCVvCSPm0/BaFc+MbqlrMrslVD3qOXnzik5tO79a6rZ3FxWQCTLleHFk7DvikZo9p/W4rz7hyz3cGVZJ2i3QkQoF4IQhAC4bto40WOPkOjZMjj1a9gaT5EH3LuS5n6acDMsMdYwaxHJLp+Bx0Pk7/srMdaopzx1Q0Xux9cA50JIs7vM8eI93yUfaKhMUpcB3XkuB5HiFgdjccLmtjLrSR27M31c0bvMLrFHVR18Ja7RwHeHFp4OHRaKfRXWuz7nnzPmY/Jr6l2MghSa+jfC8sd4g8COYUZaE01tHn1Ll6fcEIQunCTSuDh2TjvN2H2HfY7vcUw9paS0ixBsehXlWjYf2mPM3+KwAOHGRvA+I3KLfTz7Fkz1rS7oq1oIsJvRl1zf+IBbkCLeYTWF9hC0mdozk91pYSQ23LhfqoEOISMkMjTvdcjgRyIVdOr4n2LoUY1u+d/ohoU6rjbIDLGLD/NZxYeY/p+Sgq1PaM9T0vQIQhdIiseQQRvBuOhVlTVYp6+CoGkdcOynHBtRGO47+4XCrEuLsL8MqS31oJIp4j7LmP1PuDlRnlOdmzwWRzfT8/4dLQo9BUiWKOUbnxsePB7QfqpCwntghCEAqZqadsrHRvAc1zS14I0IIsQnkID512z2Zmwqp7ubsy7NTSDl7J/rHxV/sttIXkOacsrfXHB45+HRdaxrCYa2F8EzczHDzaeDgeBC+f9p9nqjCanKSbXJgkAsHj78x9Fpx5N8Mw58H8pO5wSw4jDycPWHFjvqFl6ykdC8seNeHJw5hZvZbaQkiRhyyN0kbwcPqD8F0xj4cRhzDRw97HcjzCkn5b/AOWUXC8QtPi1+zIITtVTuicWOFiD7+oTS1J77HmtNPTBWOBVfYzNNrh1mHoCRqq5Kx1iD1BXKXUtMljtxSpexLxiUvnkJ9sgeA0HyUNScRH76X/dcfioy5P0oZG3bb+T3DKWOzNOvzHI9E7LGHDOwafjb7H5frxjr3DKWOzN3+GhHI9F1r3QT9n2PCFOmpQ9naxDQfxGbzGfq1QUTTFS57gpFf3MKr5HbnRZB1J7vzeF4p4jI9rG7yUxt9IZ5KXBafe5zXVB9kbxfyzPPgFTnrjpNXg8bdOvj+2bbZAEYfR33/scF/8AiarhNwQhjGsboGtDW9ABYJ1YWe0lpaEQlQh0EIQgEVZj+CQ10LoJm3adxHrMPBzTwKs0IGtnzZtBgdThNVkdzvDIBpI39bwtTsrtKQRKw2cNJWX0cPsup7SYDBiEDoJh1Y4etG7g5v61XAcbwmpwqqMb9HDWNwHdlbzHTmOC048ia0zDmwuX1Sd3IixGAPYQHDceLDxaeiy08Lo3FjhYg6rO7KbTOjcJY+glZfQj9biulzRQ4jCJYz3rd08QfZcpTTxPT+koyY14idri1+zIoXuWIscWuFiD7l4Wo81rXDJeKttM/rY+8A/VRFZY7HaRh5wsPwt9FXKMPcoszLWRoRCksoX2zOswcC85QfAbz5BOxvp49bGU9e4z3bz52R0vbk4sb/lwTtl6V5k7QXDACDyd0V3iGEQvY6zA02JBAtYqgftFPublaNwAbu969RYlUVRENwAT3rCxy8brPcZHXX2N+PLhmPLSdP8AAuFuZSU8tdL6rGHLzPh1JsAqr0X4e+d8+Kz6vme5sXRt++R0uA0dGFRfSHUOqqimwan9ppmPBundB8G5nHyXRqCjZTxMhjFmMYGtHQfVU5L3z8/0a8GJSlK9v7JaEIVRqEQlQgBIlQgESoQgPKpdqtnIcRgMMgsd8bwBmjdzHTmOKu0Ino40mtM+ZsTw+owypMbxZzdQfwyN4EcwVsdlNpzC4SM1abdtHff+fIrpO12zEOJQdm/R7bmGQC5Y76g8QuB11HUYbUuikble06+y9vAg8QVpi1S0zFlxOH1Sd7q6aKvhbNERmI7p3X/pd1VNguHiWcxvBGVpLhuvYgW+KyOyG1Jp3B7e9G4gSsvqOo6j4rpU8TahraqmcM2W7SNzx7J68NV1VULW+H2ZW8cZWr1yu6+SfWUEMgBe0HKNLkiwWaq8VjYbU7GtG7PlBJ8L7k3XY3O9pjcA3g6zXA9QbqqUseFpeoo8R4qaf/mtffXJ6lkc45nEk8STcryhC0mFvYK9pJWUFHLWyb8l2A7z7A8zZV2E0Xbytbw3v6AKs9IVW6urIMKg3Ne0y23AkfJrLnz6LPnrfpN3g8et5H+F+SV6KsLfK6bE5tXyvcIiRwzXkcPPQeBXSFHoKNlPEyFgs1jA1o6AfNSVjp7ez15npWgSoQuEhEJUIAQhIgFQkQgBKkSoBFnNtNlIsThyO7sjQTDJbVh5Hmw8QtIkXU9cnGk1pnzFVQT4fUPilaWvabPbweOBHMHgVt9jdqzSuB1dC8/vG8WnmOvzW+212RixOKx7krQeyktu/pdzafguH4jh9VhsxjmYWn3teObDxWibVLTMWTHUV1Sd4q6CGtjE8LgSRo4bndDyKzdXRSRGz2kcjbQ+BWI2d2plp3ZoH2vq+N2rXeI+oXQcO9I1NILTsdGeJA7Rv3+ClNXHC5RTePHme36a/RWqTR0MkxsxpOup3AeJVz/inCPW7SP/AIZL/wDVVGMekymjaW07HSOtZpI7Ng+p8LBdean2kgvBQnur4+xbYtXQ4PSOeSHSOFmDjI/gP9I4/mqL0UYO9xlxGbV8rnCIkakE3kd5nTyKosGwSrxuo/aapzhCDq62UED8ETeXX5ldfp4GRsaxgDWtaGtA3ADcFnt6492b8cp6aWpXYfQhCrNAIQhACEIQAhIlQCISpEAXXkvCRzUy9hQDpnCbNUFHfEVGkp3ICca4KDicdPVMMU8bZGcnNvY8weB6hRZKR6YdQP5ldOGUxP0Y0r3Zqed8OtwCO0aPA3B95KhxejmovY1cRHWJ9/mtwyhfzUiOleprJS9yt4ofdGSg9GjD69UeuWG3zcVeYTsFh8BDi0yneO0LSB/aAB77q7jgcpLIyuPJT9zqxQuyJcYaAAAAANBawAXu6YYwp1oUCw9oSJUAIQhACEIQCIQhACVCEAJEIQAQvOUIQgELRySZByQhALkHJAaOSEID1ZKAhCAVCEIAQhCAEIQgBCEID//Z;" vertex="1" parent="n6Bw79Q_llv1yDib1XSp-8">
          <mxGeometry x="105" width="53" height="53" as="geometry" />
        </mxCell>
        <mxCell id="n6Bw79Q_llv1yDib1XSp-11" value="Application" style="rounded=1;whiteSpace=wrap;html=1;" vertex="1" parent="1">
          <mxGeometry x="290" y="179.5" width="120" height="70" as="geometry" />
        </mxCell>
        <mxCell id="n6Bw79Q_llv1yDib1XSp-13" value="" style="endArrow=classic;html=1;rounded=0;exitX=1;exitY=0.5;exitDx=0;exitDy=0;entryX=0;entryY=0.5;entryDx=0;entryDy=0;" edge="1" parent="1" source="IZiWBFXiaey_TxyXL_8r-5" target="n6Bw79Q_llv1yDib1XSp-11">
          <mxGeometry width="50" height="50" relative="1" as="geometry">
            <mxPoint x="60" y="390" as="sourcePoint" />
            <mxPoint x="110" y="340" as="targetPoint" />
          </mxGeometry>
        </mxCell>
        <mxCell id="n6Bw79Q_llv1yDib1XSp-14" value="" style="endArrow=classic;html=1;rounded=0;exitX=1;exitY=0.5;exitDx=0;exitDy=0;entryX=0;entryY=0.5;entryDx=0;entryDy=0;" edge="1" parent="1" source="n6Bw79Q_llv1yDib1XSp-11" target="IZiWBFXiaey_TxyXL_8r-3">
          <mxGeometry width="50" height="50" relative="1" as="geometry">
            <mxPoint x="770" y="230" as="sourcePoint" />
            <mxPoint x="820" y="180" as="targetPoint" />
            <Array as="points">
              <mxPoint x="430" y="215" />
              <mxPoint x="430" y="165" />
            </Array>
          </mxGeometry>
        </mxCell>
        <mxCell id="n6Bw79Q_llv1yDib1XSp-15" value="" style="endArrow=classic;html=1;rounded=0;exitX=1;exitY=0.5;exitDx=0;exitDy=0;entryX=0;entryY=0.5;entryDx=0;entryDy=0;" edge="1" parent="1" source="n6Bw79Q_llv1yDib1XSp-11" target="IZiWBFXiaey_TxyXL_8r-1">
          <mxGeometry width="50" height="50" relative="1" as="geometry">
            <mxPoint x="220" y="400" as="sourcePoint" />
            <mxPoint x="270" y="350" as="targetPoint" />
            <Array as="points">
              <mxPoint x="430" y="215" />
              <mxPoint x="430" y="274" />
            </Array>
          </mxGeometry>
        </mxCell>
        <mxCell id="IZiWBFXiaey_TxyXL_8r-1" value="CanisMajor" style="rounded=1;whiteSpace=wrap;html=1;" parent="1" vertex="1">
          <mxGeometry x="460" y="237.63819095477388" width="125" height="72.36180904522614" as="geometry" />
        </mxCell>
        <mxCell id="n6Bw79Q_llv1yDib1XSp-3" value="" style="shape=image;verticalLabelPosition=bottom;labelBackgroundColor=default;verticalAlign=top;aspect=fixed;imageAspect=0;image=data:image/png,iVBORw0KGgoAAAANSUhEUgAAAZAAAAGQCAIAAAAP3aGbAABCN0lEQVR4nOzdd3xT5f4H8DOyd7r3orvQlg0yRRHEcRFx4RbH77qvXhfiXji4DtzrKi5AAQFR9pBNKRRauneb7pG9x+8F1d7QnCQnyUmTk37fr/vHNTl58pSmn5zznOf5PgybzYYAAAAdYIHuAAAAkAWBBQCgDQgsAABtQGABAGgDAgsAQBsQWAAA2oDAAgDQBgQWAIA2ILAAALQBgQUAoA0ILAAAbUBgAQBoAwILAEAbEFgAANqAwAIA0AYEFgCANiCwAAC0AYEFAKANCCwAAG1AYAEAaAMCCwBAGxBYAADagMACANAGBBYAgDYgsAAAtAGBBQCgDQgsAABtQGABAGgDAgsAQBsQWAAA2oDAAgDQBgQWAIA2ILAAALQBgQUAoA0ILAAAbUBgAQBoAwILAEAbEFgAANqAwAIA0AYEFgCANiCwAAC0AYEFAKANCCwAAG1AYAEAaAMCCwBAGxBYAADagMACANAGBBYAgDYgsAAAtAGBBQCgDQgsAABtQGABAGgDAgsAQBsQWAAA2oDAAgDQBgQWAIA2ILAAALQBgQUAoA0ILAAAbUBgAQBoAwILAEAbEFgAANqAwAIA0AYEFgCANiCwAAC0AYEFAKANCCwAAG1AYAEAaAMCCwBAGxBYAADagMACANAGBBYAgDYgsAAAtAGBBQCgDQgsAABtQGABAGgDAgsAQBsQWAAA2oDAAgDQBgQWAIA2ILAAALQBgQUAoA0ILAAAbUBgAQBoAwILAEAbEFgAANqAwAIA0AYEFgCANiCwAAC0AYEFAKANRqA7AEYEK4KojCaN2aI2mTUmi9ZsNlitBovVaLGarDarzWax2QYPxjEUQ1AmhrJxnINjHAbOxTEBkyFkMkQsBgfHA/qjgECCwAJ+0W8wtWp0NQpNo0rboNI0a3R2ieQTAZORJuRliAUZYn6mWBDBYVHTLqAD1EbV5wiMVJ06Q5tG367963/demOXzqAxW5wdz8YxPgMXMBk8Bs7Bcdb5Mykmhp47t0JRHENNVqvNhpisNpPVqrdY9Bar7typmUVpMpmsQz+uQiYjhsuO4XFieOxEPjeCw0oScEUspv9/bhAAEFjAG2arrUKuOtTRd6izT2E0uT44gc/JlghThbyU8/8TMr0/r5cbTU0qbZVCXaPQVCvU/Qbit04W8ubGR16WEAnXjyEGAguQ1aTS1io1dUpNw7mrPK3W4RwKR9EEPidRwI3lcWJ5HCmbGc1lR3LYbJz43o7WbNGazWqTxWA5dyZltFot50+gzDYbAz2HgaFsbGAMCxcycT6TgaOofQtyg6lTZ2jX6ls1+ma1tkWt69YbjVbrwLMogqQIeekifq5UmCsVxvA4qN/+ccDwgMACbmjNlt+aO35r6pQ7OZNi49j4CMnM2PDJUdIhgWLPakNkGl25XHUu8pTaRrXWYLF61BMcRWN47FEifpZYkCkRZIkFjsfYEORIR98frV2lfUrrhZ/tDBH/hvT4CZFSuDVOXxBYgIDGbDnbpyzrV5b1ncsXx49IHI+TJRFkigXpIn6SgMtlXHDlZUWQPr2hW29sVuta1brzY1uGTp1h8NzHERvHeAycjWEsHBtMPZPVZrFZ9War1mJxTDcmhsZwOXF8TiKfmyzkpgp5SQLe4LMKo6laoS7rU1XIVbVKjfnvwa9oLrswXDw2Qjw+QuLs1A8ELQgscAGl0by6pmVHaxfhsyiCXBofuTgtLpbHITygS2fY29azp62nXat38S4sDEsT8bIkgjQhP0XIi+dxWO6yQ2+xtqp1DSpttUJdKVc1q3WOH1wRi1EYLr46KSZTcsHJV7tW/1Ot7EBHr/3kCRaO3ZOdPC8hyvX7gqACgQXOqVNqTnTLS3oV5f0qxw9EioBXGCEaEyYaLRUNOZlCEKRFrTvbr6qSq6oU6jaN3vEkisvAUwS8JAE3WcCN43PieJwIDouBESeU2WrTWyymc5dztvMzm1E2jrFxHLvwWlNrNndoDc1qXZNaW6fU1irUarsxtVgeO1ciHBshyQ8TSdh/3THs0RtPdMuPdPWV9CgGf8ZIDmtadNjsuIhUER9GuIIfBNZIVyVXf17ZWKPQED5bGC6+MyspVcgjfPZgR+/aOlmTWues8cJw8ZXJ0WPDxUwn8TQwK6KsT1kpVzeotO1avcpkdjwGQ9FIDitRwM0QC/IkwrwwoeNg2ZHOvnX1bXXKC34QFoZdmRy9ODVOYHdrst9geudMbWmf0v7ImTHhD49Oc3uiBwILAmuEatPoD3X2Hunsr1dphsxtwlE0SyKYGCGZFCVNEHCHBIPSaC7pVZzsOXc61ucwq4CDY9kSYZ5UOCZMFMfnSBzmQ6lM5jqlpvH8oHvz+eEtFzO2nMFRNI7PSRHwRol42RLhKBF/cDRKZTKf7JEXd8uLexSD2SdkMiZGSmbHRRSGiwceGZiWsUfWvb+91/z3nwCPgc+Nj5yfGB3PJ77gBQEHgTXi6C3WT8ob9rb1ED6bLOQ9nJeaQXQDTme2bG7q2NjY7jihYWDU/PLE6GtSYqVs4kmbdUrNr43thzv7HCd/+kjCYi5Oixsy60plMn9X07K9pcv+zdKEvCcLM+LsBuD6DaZXT1UNOcG8LSNxcVoctZ0ElIDAGilMVuvZftVeWc+hzj7Hu3USFnNadNj02LA8qcjxtSW9ikMdfce7+vsdZjbgKDohUjI1SjouQiJxiCq9xVLRry7ukRf3yNs0er9+1KRs5qRIaZ5UOClKyvt7oK1Jpd0p697X3qM0/nW2xWfgM2LCr0iKTv77OtdgsR7p7Pu1sb1epR1sLVMsWJQSc1FMuD+7DDwGgTUidOuNb5XUVCnUjk9hKHJZQtRtGYkCognojSrtytK6Jru/ZHsTIyWPjhlFOHPdZkOOdvV9WdnUrTdS8RN4IJ7PWT42y/6yrltnePFkVYvdWBsLw+7LSZmbEDn4iMlq/ba6ZXNTh31T4yLETxZk8BzuM4BAgcAKZQaLtUKu2tnafbCj1/HXLGUxZ8SGz42PTCYaUz/e3b+ztftUj8LxdIyNY3PiIubERWaIBUNu3tkQpFah3i3r+bOjV000fD48UORcCt+UHh/G/mtptBVBtjd3/lQns5/+OiFScmtGov0thRPd/T/UyuxH7pMF3BtGxU+Jkjq7rQmGEwRWyDrdq3ijpIZwvAlBkKnR0vtzU8VEi4Q7tPoVJTX1Ts6qxkWIny7MIFyjZ0OQD8vqd8q6fe47NXAUfX1STo5EOPiIyWp95nhF9YVnmo/nj5oVG2H/yPuldbsvHOO7Iin6vpwU/3cZuAGBFYJO9yq2Nnee6JGbHYa3GRg6IUJyRVJ0wd/3y+y1qHW/t3T+2d5LOLcgP0x0dXLMuAix47mGwWL9vblzc1NHr2G4LwBdE7MYS9IT5sZHMf4+FZQbTGvrZdtbugZvDrIxbF5i1PVpcYM1HowW605Z17q6Nvsxu4Jw0Z2ZSWkifiB+DvAXCKyQojGZ3y+rP9rVT/gsjqLLx2aOj5QQPrunreeT8gbC9X2OIz72mtW6Z4sq3NZsCKA7MxOvSb3grt+6Otn3ta32j0yIlDw/Lsv+kUq56qnj5fZ/H3wG/taUvEQ+1+89Bk5AYIUItcm8p637t+bODq3B8VkOjl2ZFLMwJcaxUJQNQc72KdfVy0p6lY4vZKDo1OiwxamxqURnFmqT+feWcydWg/fgghMbx27PTFqQGD044ma2Wrc0dfxYJ7MP6GyJ4JHRafF2edSi1q06W18p/98lJBND785Kvjwpelh/APA3CKxQ0G8wLT9R0eJkxnmqkPfqxBxnVah+rG1dUydz1vKDeamXOVltZ0OQ54oqzvQRxFxweqYwY2p0mP0jv9S3ra5psX8kVch7d+pozG4avdxgevhw6ZBKFTeMir85PcH/XQZDQWDRm8Zs2dDQtqmxg7AQQpqINz06fF5ClJBFkFaVctV3Na2lThJntFR4Z1YS4QxSBEHO9Co+Lm9sc7nCOdgk8DlvTs6zD26jxfpNdfNvzZ32h6UJec8UZkbz2IOPqEzmt07XnL7wDPSqpOi7c1Jg+eEwg8CisRqFZvmJCp2T+4CXxEU+MibN2WsPtPe+V1bnbNL5lCjpEwXpzhYAVivUzxZVeFrNKhiMDhO9PjFnyIMvFVcV98jtHxkfIXlh/AXjWQqj6YFDZ4Zc+c6KDX8sPx0yazjhL774YqD7ADymNJp+aWj/vLKJcNZCLI99T3bKtWmxhOX0NCbzF5WNq2taCcMKR9HbMhPvy0lxVopvR2vXGyU1lC+vGR5dOkOaiJ9w4ah5koC7r73HbPfN3a7V9xtMBeHiwRoRHByfFRtR2qe0v2/YpNZpzZZxEcQ3MYA/QGDRj95iWX6i8kBHL+FlYASHtWJSXp6UoJ7BQGmEBw6VVsgJprwPDE6/PjF3RqzT9SjHu/pXnqmj35mVHaPVOvPCH1DKZiXwuQc7+uwfrFVqpGxmpt0VMY+Bp4n4O1ovmGVWpVDbEGRMGMF6JuAPMHmXZna2di3dXzKkiMqgfyTHfDK9gHDnKxuCFHXLXzxR6WwCupjFeLogI0tCPGiFIMif7T2vl9TQ8szKTkmvols39Ebq1Oiw8RFDJ6atb2jvvPDITLFgWWHmkJU6a+pkWy8cBQP+A4FFG2ar7d3SulVnGwhndTJQ9NmxmUuzk52V/d0j637lZJXMyTC5mMX4cFq+sylaCIL0GYwflTda6T/iabBYf25oc3x8gcNMhR69cdnx8iGTb6dES69wOPLrqqZWjdOiYIBCEFj0INPoXiyudFYTJpLDenZs5uQoKeGzRov1l/q2zysanTUuYDKeLEgnXKYzoEWte+xImbPRfdrZ19bj+LMUhItHOcw169Ybt7cOPXu6OjkmTXTB6kuT1fb0sXJnvx1AIQgsGjjbr7r/4BlnM54SBdzPZhS6ODlaVy9bXdOic3JTj8vA35s6ekwYwUqdQT/UtjrW6qMvvcXa7DBnjYVhD+WlOh48pH7D+bNR5opJuUMuDJUm87uldbVOLtUBVSCwgp3hfL09F1did2UlMTCn99Zb1LotLkdYLouPjOKyXRzQozcWdROv9aGvPqI1j2kifrjD8F+71lDm8FXBwfEJRN8QcJLlbxBYQW11dct1u4ocTwcGTI2Wbp43ebyT2+oqk/n2fScfOHTGxaXcA3mpS7OTXXSgSaW9a/8pmk5icMHZlNdZRHdIlxVVdDqM09+fm8pxGC7c0tTx36pm6roJhoLACl5n+1WbmtqdPYuj6C3piS5e/ltTh7Od3AeMEvHdbnJ1POTOrQY4m/UazyNe2FwpVw15hMfAF6bEOh65qamD8PQNUAICK0j92ti+7Hi5s1ObUSLeh9PGJAqI/7qsNmRzU8f6BqdhN7CI957sJNd90FssQ6YdhQxngZUhJq4ec6Szz/HB69PiEhy2q7DabOvrCe5CAkpAYAWjtXWyr6uanV2G4Sj6REFGvPMiJwc7er+sbHKxzTKCIA+PHpVLVL79wm60OV4KhQbMyTz+RD6XcMLtyR6F45QOBobNjSc4Rf2jpat32AtDjxAQWEHn2+rmHy4s1WQvgc9ZNW1MnJONlxEEaVBpv6l2M4wyIyaccLDGXpfOsKnR1TkarTGd3KbAMTQ/nCDH9Rbrr0T/GhfFSB2bMttsr5yq0ltCZBZIUIHACi7vl9W7vpT715hRCc7PrfoMxieOnu1x9/V+/Sj3e1gd7+4303+aqDPOiu0gCJLlpEDFxsah8xsQBInmcq5MinF8vF6pPeakjCLwBQRWEPlvVdNu5wXRxSzGyxOyndV7GfBFhZsrQQRB7slOThYQ7+Rs73Svwu0x9EW4emlAkpORQYXR1EhU5/66tDg+0bY6O1q6fOsjIACBFSy+rW4h/A4fdFtGUiFRIfZBW5o6DjmMDdtsNp1cLW/q7C5vajtRzWvuviqZ4IzA0ZHyZnPoDsS4uKZ2kWWEgSVgMggXP5f2q+phHinVnJ4Yg+G0rk62nmiB2wAMQa5Ni58TF+Gihe3Hyh//+nedUmtU64wavUlrMGv1Jp3ReuEkrCWv3EmqPwdLty7/GkEQFMcYHBaTy2bxOUwBh8XnsgRcjojHFvHZYh5HzOeGiRhcFupkDDs4iZiMOOeb0bOINgQa4GxCXEG4iLCO/rul9Sun5LGcrO4EXoDACrwjnf3fOx9lPz+yG35rhpuCvI++9kNNab3rY5gc1t3XziLTpc83HBj4PzaL1aTRmzR6bY/TK0SOmB+WHheWkRCVk8SLkgR/eM2Jj3RWm9C1Dif3TJ3db21Sa8/2q8Y61IEAXoPACrDDHb1vn6kjfMpms2m7FXyb7faZhS5asNps//fGD5Xu0gpBkDdfvlPkchXOoDMna8gcNkCv0LQV17QVn3sJg8vmR4r5URJBTBhXIhDESAUxYSwno0IBwcKwf7i8KHaxMKBHTxxYiXxuFJfVpSO4gj7R0w+BRSEIrEBSmcyrzjZYLrwZZ7Na+2rbWo9Vtp+ssVosZ3atjHaZMtuOV37xxVa37xWVEPmv62aT6ZXFautt9XLA2KwzKJq7FM0XvFySEp0wJTd2bDrHybTM4ZQrFTouGLTX73yeurOVAwwMvTguci3RXh7F3Yp7sr3qKCACgRUwMo3+heJKzfnvc22Por+xU97YoWzpVrR2mzR/rXT79yPX5ia6WT3z4Td/kHm7RXPHk+xYt0JtpbReu/zcj9Z5dt0+XoRYkhwtTo6WnPtfFO68oI3/TI0mLsIzqMHJltcD25o5e2pGTDhhYLVp9Wf6FPkui2EA8iCwAua/VU2dWn3LobP1e06p2nodDwhLiHjtwWtcN/Ln2YY/theRebvpU/NIdkzrn0oyNqtN0yXXdMllRVUIgqAomjA1Z9TcCcLYMH+8HSEcRWfGurp3MbC1h7OnnO37PzAZIlnIayIKu/X17RBYVIHACgC9yfzkqg1rdhX31bVZnGxBGhYpPvjjcyyiCT6DelXaGx54DyExu5PBYV42eehuMc7wOMNx4mOz2VoOl7ccLudHSsIy4sLS4yMyE7jhIv+N2WMo8mRBOuGcqUEmq7XCYZ3zINf/0oVhIsLAKulV9OmNYS6vQwFJEFgB8MXGA6tWbXR9zCNLF+S4uxj8advxjiZSg03jp+dHEm3dTChSxEfR4dv/TdMt13TLWw6Xn4vpjPichdPC0uIQP6RWYbh4yEaqjjq0Bq+3L8sLE21yqPY3EHNVCvVUzvCdSIYwCKzhVtHa9foHG1wfE5Mcfe/1F7tt6uffjpB804eWXELyyPPr6bCo5OhOl7NY/aSvRnbo7XX8aGlUTlJEbnJkThLufA2NRzAUWZzqfkGSs909/mrE5WudrekZGBdzm5WADAisYaU1mCYvel7V7WrVC8bAd69eFiMVum6qtr33wMEyMm/K4DBvvnisR/0cNzHrj0AE1gBNZ39DZ3/DvtM4k5F9zbS0OZ51ntAdmUmjSWzG5brGMdv5nNLz24UxmRhKWBGI8FIReAHm4A6r5z/+1XVaIQhy/TXTc5PcXAwiCHLDk5/a3C0bHBAV46Ywg6NHbpzj6Uv8wWIyn123f/u/Pzv17Y6O03VmbwvjTYsOIyy258ixGrI9LsPN34uAQXwG0ORkijzwFJxhDR9Zn/KDz39ze9g9Sy51e8ypOtlJcqdXCIIkxHkcWPPGZUqjpf2dQVFvwKjWtR4pbz1Szg0T5l47M3ZcukcD8xwcuzfHVRnoQe1afb3LUyEJ283tCB4Tt98aelCnzmC12ZwV4QLkwRnWMCmqbpm0+EWTu+XEi66ffXFhutvWdpNOKwRB4ryaaT1vRr4Xr/IrXZ+q+Iut+17+rnrrMXUHQQlQR3E8zrtTx0jZ7u/Q2RDkk3KnO6ENkLLctONsf3+LzValIN5tG3gEAmuYzL3tjTaXha7OXVCECde/eR+Zb+FdR86Sf+tIlxVpnFlwKdmJpsNM3d5XteXIvpe/O/3dTqOGeC+JQY+OSYt3vs7ZXqNKW+Kuoo7rJQcuAgtBkDO9ri42AUkQWMOhtVehIHF5teQf08i0ZkOQY8XV5N9d4NUMoEWzCjJGE+zTFyRsVlvzobP7XlpdumavvJFgH7NYHmfFpNxsiZt7F4P2k9ihK4bnJrBczAWBYSxKQGANh0vuXUnmsMVXTiVz2M5TNXLntRMceTdywuew9q9+huFu1CawDEpt477TB1b8VPzl7/ZnWziKPlOYkevuTusgG4Lsa3cfWC5qvQ4wOQ8sGexlTwUILP+yIciiJz+rJlH8IH9SzhwSo1cIgqz8bodHfTB6u8V8rFR4/12Xe/faYdZ2onrfy9+VbzjYXd40Riz4ZHpBitB9VdUBNgT5+GwDma2th+xQ78jofNJpm1YfsgWnhxEEln/tKq7e+PM+MkeuXnEPTq5I08G9JR71oUvu/XDvG48slnp+kzEgDApN3Y4T6hPVywoz3F672auUq7aTqE6RJuSFuRu8d7HY0GCxmshNQwEuQGD515c/7SZz2OjCUQWppCYKVct6tB4GUJsn149D8NjM05tey8tL8bqFYTNufMbmH5eX/rCc7+GY3UZ3N0MGuJ0or7dYXASW6/MvQBIElh/1KLXrNx8mc+R1pG/JnSX312WvldwMAGcSI8Sr33uQqiUyfoEiV94058iaF64iXZFi0KHOPsLqxkMIGPh0dxujtWrcXPSF3o7/ww8Cy1/MFuv8+9+1OK+gZG/8+EySzXZ4vnlUu6zH7Nt3+7j0+OLtb40bl+FLI/6A4dikqbmbvn1my+v3uK5sQahGoX7XSbnXIfJdbv8xoNrdma/jVqzAUxBY/rKjuKr4EKnpnRwRb/4ksrVfFH1Oi584Y9Dot56o8vRVQxSkxu5evSwtf5SP7VAIZzE+ef+hYz8+d7W3c1y/r2l1uyvagAmRErfHnO5zc+kNM919B4HlL79sJltK4YYb55AcbkcQRK91M1WS0Ntf/e7Fq4aQ8Dm1m159/fnbBGFkpwv4BYomZya8+PRNbcc/vfeKKd61YbJav6hsOkVu70UWho1zd4ZlttrK3H2XMCCwfAaB5S/rtx8neeSr915Jvlm5ypvpPId3FfdSUTAARZBn7rxcXvTpjEvH+d6aF1gC7kfvPdC4/e0X7rs6yocK8Ttbu7cQ1a4itCg11m35vXK5SuXu8p+JQ2D5KohHUuls+Ve/K8ndm4tNjk4gMT4yyLv6xTabbdO+kruuusiL1zrCMWz3J49tPnx2za8HNm8rMjrZ/IpCEbFh82cUXDa74LpLxnNYvn5oV287/t/TtcJCUpe34WzWIhI3cPc637J7AANDWZjHo2xgCAgs6mn0xjffWUvy4PzsJD935y9bd5+kKrDOnSww8Gtn5l87M9/wpuXO179bs3onyVo3nsrIT1v20KJb54wlf9Xs2oYDZ27/57vnvirGpo+9cz7uLv5mxIZzXJbBQhDEiiAHHPbcHiKay8bgBMtnEFjU27CvhPwm7+OzEj1q3It7YQO27z3V0NGXGkNx3Us2E//xhTs+fOz6Pw6fLT1Tt7u4uqK6RdPv5VRVFMOkUeLs9ISZBaNGZSbMGJeZlRBJYW9/P17x0LIvB/5/+6labe+67IXTInOSnNWrYaDopfFuNq1AEKReoXE7xyrW+eb4gDwILOodPV5B/uCE5GiPGg8TerkpqUapvfLRD8+ued67l7sWJuTdPG8iMm/iwH8W1bR+u+14aVVLRVlDT3OX6/LwTA4rOiVmdF7KpRflLZk9NtZvI/q/H6u44saX7R9RNHcd+2Bj9sJpGfMnEr7k2rS4JIH7JT4u9q0Y5HYdIiADAot6W/afJn9woocLX9hc7zdfKT9WsX7vqWs9LJfshYkZCRP/3lvfZLG29So7+pRqnUHz92gXk8HgcZgSIS82TBQh5GH+v1j6bkfREy99S/hU5abD8sbO7H9cNGTDsTQh74a0eDKNV/S7D6w80iuxgQsQWBQrqmltqfdgMnpGomdnWAKxT5/71z7dPAyBZY+JY8lRkuQo9/OY/GfVL/sefuIzp0/bbB0ltf31bdOeuIEf+b8bIFenxDLIJWlpv/taV2QqygO3YFoDxZZ/vIn8wRgDT3O3EfEQUZE+bcl5qqjq/jd/soyYVbi9Su3j76z99/P/dXukQand99Lq2h0nBi5gx0dIppHb52ZHa5fCyeaSg8Qshuv9EAFJEFhU0hlNu0hvvYUgiChSzPTwc5yVEuN5v+zYbJ98unn1NrJzxOhu4cMf/OejX406UvdArGZLxYaDRR9vDsPx58dlsXH3fx0Wm+3b6ha3h8XxYACLGhBYVCqpa7N6UnxK4Hnx4lFUFHv57EdSNSRoTW8yT733nYOejCcO6CxtiKtrIzkpvVWjcztfFEGQSB9GHoE9CCwqlbjbxWCISM9HdsQ8TkaBrwv6jh0qu+rhD7pDdFsEG4L8eqh0+k2vHN1Z7MXLY5KiyU9YO0yuEkYS3CKkCAQWlZo8GW4/lz6kt4+3d/PiWV68aojfthx59M2ffG8nCD3+/vprbnm92JOy94M4Au6ZLa+lx7mfezXgkLv5ogOSSZc/Ba5BYFHpUFm9R8ezWd5UTH944XQ2uZ1gXPtp7d4bn/ys1YfyfkGlS65e8fUfhYtfePf99V43suLZmyNJf4vsb+9pJre1hNvayoAkmNZApco6z86wMK9Ww0oF3Pz8tKIj5V681p7Nalv78776lq7jPz3nY1MBV93WO+fW12QenuEOcd3t8x658RKSB2vMlvdKSX0/ZUkEkRwPSjYDF+AMizJ6o7m/S+7RS9Rqb2rFIAhyxUzKdjktOlqeeOnjm//0eHA6GNjO1x27/vGPc2Y94mNaLfzHtLUv3kH++D2ybgu5gnxXJ/t2YxfYgcCizI5TNSTriw7S6b2sc7BgDpXVXVrr2hbe+dY9K9fSqyCmxWpd8MiqeYtf/HnDAY9uzjoKT4hc/cY9Hp3u7nJXnmEAl4FPj6HHLh60AIFFmS0Hz3j6ks52L6utT8xMnDGXyp2ZbVbrlx/+OvXGl7/fUeT1tmDDw2i2/Hqo9I5lXwoL795GrmS+a1Mm51RufUPobldne2vqZA3k6osVhImgRgOFYAyLMmVV7icQDtFNYvNOZ7atekRSeLeJdFkIMo4dqzh2rOKjWQW7P3ucF5RbqP55tmHp01/UljVQ1SBPIlz34SMRntyubVBpf6xtJXnw2AifViaAIeAMizItjWQrWA7SK7RybzcE5rGZN1wz3bvXunZ0/2np2HtufebzDQfOGDy8yPWTHUWVz32wPufKZ2ZduYzCtJo8Oady59uJHmbKyvV/IqQvngvCILCohLou/QHIY+XeYfK89uahrW9clOvlrn9HK5unXv6Ud68lKSEj/q1nb7lpVqFf38WF5/+77f1PNyk9vJtBhjQuvHLriiiJZ4sN1v55+sbbVyTPzM+/aQ7i7mJvXITkxfFZPvUSXAgCixp6k5mbeasXL1z96WO3ziMuxkTGUx/9+tbKdYiff4mxSVGXz8ifPCFz2rjM3KRo/w3K2BCkRtZzrLS+qqJpx/HK02fqjFq/1F++8oop3795n9jD6WynamUXLXpef370Ku3S8XnXznCRWUwMfW/qmEQBzHGnEoxhUUOh8XKCQhu5m03OvPnAwj0Hz5w46kHJQC+0N3d9/cOur3/YhSBIfHr81VdN/dfiWRmkp4OTcaCs4dNNh3bvOtHZ2Elhs4QWXDdr04r7vCjC9fpHv+r/Hmuv31Vss1pGXz/b2cF5UhGkFeUgsKih8nYjBi+G6odY8fgN8295zezV5hRekNXKPnn3l0/f3yCOEKUkRY9OixuVECEJF4eHC8OlwiipMEzIE/M5UgF3cBs+o9miN5p6VTq5Wtsj13T3q/r7VYo+VUdXf0VLV21TZ0d7r96r3YA8xWAxXnzqpmfvWuDFa99bt2/j1qP2jzTsKWHy2FlXTiU8nmR1GuARCCxqWL3dhfzYWc/WSzu6ZELWFx8+cuc97/jYjkdsVqu8S17SJS/xeYvWYSMMEx7Z+EpekmcVEwfsKK7+11MEJQCrfzvGEfGTHebx4ijqdmt74AW4SxhgjXVtXT5XTbjj0vH3LvXmrGGEQDFsziXj9v/0vHdppTWYnn3jB2fPnvlxT/PBoVt8P5CXChX7/AECK8BMeuPLq3f43s7Hy25OL0ynokch6MnHrtv95RNjMxO8eK0NQSbc/voJl7UfStfsVbb8bywyVci7NJ7KzX7AIAgsaoh43q9uXbNmj87o6wgUjmFn1j5/GaXT30PA+PGZ67995o0HFnrdwpPv/VJxrNL1MVaz5eA762r+OG49v9nXZQlRXr8dcA0CixoeTZUeoretdycVI0FcFvOX9x+KGRXne1MhAMXQJUsXHF37wqKZ+V7Pw/jlYOnKVRvJHGkxmCo3HZYdq+Ax8EtIbGUIvAOBRQ0GjvGkHtc7HrT3QCkl3RBy2fW/r1i8eCYlrdEUhmPTZ+b/9v2zPyy/lUGiLrszv+w5eePStzza0bp667Gn89Pd7hQNvAaBRRmJD6vG1m47RlU3uCzmurf/eZNXd+5DAIqhH7z9fwe+fWbB1Dxf2unoV93x708t7rbDGWL6hKzCyEBuaBbyILAok+PtChsEQdobO1eu20tVT1AE+fG5Wz955588sfcXqrQzOj/tgxX31hz68IFrZvjY1J+narLnPaEhsT2qPRTD/r30Ch/fGrgGgUWZKb7dpHv6hW8UWi+nyxP6v2tn9hz/9IrrL6awzeDE5nOefeH2M5tee+iGi0fF+DpdU2swLXrwfUW3x5Wjr7tt7tyJsHLQvyCwKHP1RT5dg5j1xo/W7KGuO8j5y0PGb2/e++On/8rIS6a25SCRmh7/ytNLSre//eod8ylZ4XjwdF3SnH/1tvV6+sKlSxd8v9ybxaTAI7D4mUrcMXfpye1KQCguNUa2511Ke/Q/97+15pNPPNiVOsiJIsTPP7PkX9fMwEjuIEhCj0qbOfff/Z39nr4wc3Rq1ZbXqeoGcAHOsKiUlOzNROpBbQ0dd72y2utVPq59/OSN+ze/tuSGixksGq/HYnJYCy6f9PE7/6zd9c7ji2ZSmFab9pekznrUi7RCMXTF49dR1Q3gGpxhUem6xz76ZeNBHxvZ+N2yhdPHUNQjAgqtfv797x31fEvkwEIx9Ppb5n67/DY2k/pJA9uKq6++9XUvypmduxh86JovH7ue8i4BQhBYVFrx1e/PvPqdj41MnZp74PtnccyPJ78Wq3XXyZrfdhT9vK2os6XLf2/ku6j4iEsvypszfcw/Zo+N8M/ufi98uvnVleu828bikjljd371JFRtHzYQWFT67Wj5VTe94ns7C2++dOOrS6nokXtf/nFs2Zs/dTf5vQqVpwqn5b3x2PXzx2X67y0sVuvcRz/cu+WIdy9HMbR45ztj02BpwfCBwKKSUquPmvRPg7fF/Ox9s+rh250UWvKHP8/UHT5euf9E1eHiamWA9oIWhovyshLnjM/KyUu+eGJ2fJjIr293tqnzoRe/2buvxLuX88X87z96dOG00VT3C7gCgUWxq575/Lc1FEwBFYQJZQdXiTzZe4oqO0/VrPxh18E9pzydOemdyMTI6bMKHr1xzsy81GF4uwFbj5VfffNrA2uVvfPCUze9+H9XU9op4B4EFsXqOvqyZz9KSf3PmOTo3d88nZsSmH2DjWZLaWPH2VqZrLmrtrmzsrmzpa23p1uuV+s9Wl43iCPgSsJFMVGStLiInJSY6NjwpITIcVmJnm5a46MuuXrV9zvf+2qrWq7xsgkUufbaWV+/dIeI51lJeOA7CCzq5V/7fOnJGkqaumj6mEPfLaOkKapoDaYTta3HK5vrZT1tnf2d3XKN1mAymfVag9VqZXNYOAPncJjhUpFYxIsME2UlR49Nj5+UmRgMGx2aLJZx179U5ttvZ/qsggPfPE1dp4AHILCo98LHv7789lqqWpt72YSvXl2aCEtqfWNDkA9+3P38uz/7OEIXnxa77csnRqfGUtc14AEILOqV1LeNveRxChucPWfs3q+epLDBkUbWq7zotteby5t8bCciPkK27z0W1D4OHJjpTr3CtLg5CyZT2OC+Paem3vJaZXPQzTwIft0Kzdvfbpu4cLnvacUT89e8+wCkVWDBGZZfaA0mSeHdJr2RwjaT0uOrtq7g0HlhzTBr6VFMX/JKc43M96a4Il7Z9rfTfC4FAXwEZ1h+wWMzb1g4ndo2m2tlMdMf+mV3MbXNhqSS+ra7Xvhv6rQHqUqrn1Y9AmkVDOAMy192FldftvgFyptFcezxJ298+96rKG85ZPz7ww0rV/5MVWtcEe/UH29lxcEmg0EBAstfrFbb9cu+WL+Wsjqi9hZcPumtp5bk+VYcIsQUVTZ/t/7PTftKmmspOKsaIAgXrXn/oStgOnvQgMDyr8hpD/Z4Xg2ODBRFP33/wXuvusgfjdOLXK275ZXvfl+/3+bDzHVH0uiw2l3vhAm4FLYJfARjWP61eN5EP7Vss9keevrzr3cU+al9uqiS9Uy5+bWt6/ZSm1YIgrz42GJIq2ADZ1j+Vd7UMXnR8+o+Py7Km3Nx4X23zVs0I9+XLa1op7Nf9fOu4p9/O3LgYKmN6pKHMfERby6/9db5k6BuTLCBwPK7fWX1l1zzvHfllsi7ZP6k7R894tcqWkFCZzQ9/832Tz7dpOlX+6N9nMXYt+Hl6cO4EhuQB4E1HLYcOXv1klf9/S5cIXfJNTNuXjRzVn4ahbWDg4TeZN647/Su/SW/7iru87yQMUkzZ+Z//trdWQmRfmof+AgCa5gIxt07PNVaEASZOCN/47sPxIf7t57UsLHabI+u2vDpJ5upnYjraOYVU3a99yAT5rIHMQisYVLW1HnP8q+OHqRmS3q3UBybOX3M1ZeOz8tOurgwnY4LSvadrj16onrH4bJDR8uNWm+qrZPH4rJefmrJU7fP8+u7AN9BYA2rlHlPNFW3DvObxqXFPvf49ffMn0SLES6dwfTsV1u/+na7sks+PO8YFiMt2vgqTGSnBQisYXWgpPbyO9/UyP0yWuyaOEI8eVzGnCm54/JHTc1LEXBYw98HQlqD6Vhlc1llU3ll856iqtqqFn/foBiEsxjXL5z+3AMLc5JgCi49QGANt/qOvtxLH6ek7rvXOALu5NkFT94+b8GE7ED1wWK1fvnH8e+3HjlxoNSX3Wd98d5b9z1y3eyAvDXwDgRWAPy0vej2Rz/09xAyGRwhNyUlpiAzcXR6fHRceEpCZF5KTBzVuz90KdQ1sp665q7O9l5Ze++ZurbKurZOWc+wnUk5uvjiwuceWXxxwahAdQB4BwIrMA5XNs++5rlgyCxHPKkgPjU2Mz1hXF7ypJzk0UnRydFSkrMk1Hrjqfq2klpZRWNHS3tvVWVLS0ObXqH1d5/Jw5mMp5fd/Ood8wPdEeANCKyAWber+I7HP9Ypg+iP2RkUx9hcNovNZLKYDAaOM3AGAzOb/1oKYzKZjAaTUW8yGU1moxkJ1k8UhmMzZua/+NCi2WMzAt0X4CUIrEBq71dlX/ZEoPYBHFFQDP1w5f33U12kDAwzGtznDmGxUuGOb57OK4SRFD/CWYw7b7us8s8PIK1CAJxhBYXLH3hv2+/HAt2LEDQqN3nvt88M89aHwH8gsIKCXKN7/7udKz/bogrEFK2QVFCYfu8tc2+5fBJsdxpKILCCyN7TtfNuetWk8+8ylJDHFXKfeXrJ8iWXhtr6bwCBFWw6+lXL3vv5mx92U16OLuThTMbkKTmXTxtz09UXjYqFEuyhCQIrGBXVtM6//Y2+9r5Ad4Q2RFHSNR8+fPnEgE3cB8MDAitINXX2f75mz2c/7u7t8lftpxDAFXDnXlx445VTb7h0AobBJWDog8AKarJexYJHPjxzqCzQHQk6KIZOnDP2x5fvgqu/EQUCiwa2HCz9ct3e7btPGvxcFooWxhSm3zB/0oJLxo1Njw90X8Bwg8CijVN1bTc++Wn1yZpAdyRgRk/M/uq1pZMyEgLdERAwEFg0s6u46tffj639/VhPx4gYkmfz2OPHZ149e+ylM8eMS0+AYaoRDgKLloxmy4q1e979YIN8uMpyDj9RhPimJZe8cteCSDE/0H0BwQICi8aUWv1vh8/+eaj0j4NlrQ3tVvpP3RKGCQtGp14yKWfSxKzZBek8NjPQPQLBBQIrRBRVtzz23i9Hd580G82B7os3xk4f/fjSBTfOLKBF4XkQKBBYIaW9X7X/VE352cb9J6tPlzUqgrVwDZPNjE+OnjImrSAnOSszYWZheriQF+hOARqAwAplxXWyXw+Wbdh6pOJEdTD8osXR0inTRt+0YPLiaWP4QbMLBqARCKwRQWswHSlvrGvu7GzrrW7qLG9ob23vVfSp/LEXBophAqkgLEwUJuFnJUXnpsRIo6SJ8RFjRsXBVlrARxBYI5qsT7mtqOrg6dqGlq42WW9PR5+iR2E1kR0FQ3FMIBWGRUvj4iMS4yLy0uPnjE2fnpvi516DkQsCCwyl0Oo1eqNSa9AZTFqDccgHhM3ERXwOj80S8zl8NhPGyMFwgsACANAGfD0CAGgDAgsAQBsQWAAA2oDAAgDQBgQWAIA2ILAAALQBgQUAoA0ILAAAbUBgAQBoAwILAEAbEFgAANqAwAIA0AYEFgCANiCwAAC0AYEFAKANCCwAAG0wAt2B4dbW2X/0VE15rayptbu7T2WxWgdqZmIYKhJwEQRhsxhcDhtFUbGQK+BxpGI+n8eJjhDFRUtjo6QDxwCqmK22aoW6Tqnp1BnkRpOBaGtFHgOXsJkxXHamWJAm5KPU7f5ssdn6DaYevUFuNCuMJqXRrDNbDFar1mTWWawWu9qWTAwVsZhhbFYsj50q4CUM78dAbjRVytXNam23zqgwmmz/6xXGws79c6AoymPg5z69GMZj4jwc5zBwMYsRxmZJWUxJCG3vGPqBZbZYtv95ZtfB0iMna8qqWjQ6gy+tffHGvXffeLGLA3YfLrvtXx/3ytUD/4miSEyk5Il7r7z/1svItG9FkGePl1cr1IOPcHD81ozE+YlRnnb1VI/i/bI6lV2BdgaGLUqJvWFUvKdNlfUp/1NapzCaBh+J4rKfLshI9mpvLp3ZcrSr/0yfskahbtXorJ6UvGViaLKAlyURFIaLJ0RIcMyb9CrtU66ubmnT6jVms0fvbt+NWB4nkc9NE/FyJMJMsYCFU3mxYkOQJpX2RLf8bL+qQaXpM5h8aS1dzP/PlNHU9S6QQjywTp1tvOrut2UdfVQ12NrR6/qA7zYcaOvqt3+ksbV75ZdbSQZWr954tl9l/4jJai7ukXsRWKV9yiEfdJPVUiFXedrOuab6lT16o/0jMo3+cGefF4F1rKt/RUmNxdvC3CarrVapqVVqtjZ3iliMF8dlp3u+kf3GxvYqu68E77rRrNY1q3WHOs99tCI4rLuzk6dGhVFy9mdDkFVl9btk3RS0dV6tQkNVUwEXsoGlVOve/mzLh6u3y5XaQPcFsZDeRJ7CEvtU1uqnoq1evfH72tb9bT1ep9UQSqN5+YmKK5NiFqXG8BgefJL1VO/p36M3riipETAZlydG/SM5VsTy/s+qqKv/i8qmDt+uA0JYyA66L3t7zasfbgyGtAIDVp2t3y3rNlO66YnWbFlXL/umuoXCNr2mNpl/rm+7689T9Uovz2hqlZoVp2sgrVwIzcBa9c22z3/a7Y+WUQqHfEcMs9X6SXnDSb/tm7+ztfv35k4/Ne4po8X66qnqou5+T19Yo1A/W1Rh8m5QzaVQ+siG4CXhmcrmh1/61vUxGIYmxIRJxQIBn8MgPVyK49jlswup6OPIUtKr/KOly8UBEhYzXcyXsJgCJoN74a9Da7aoTOY+g6laodaaLYQvt9hsn1Y05oUJkwXe3AQYxGPgIhaDi+NsHGNcuN+i7nw3evVGMtezPXrjKyer35iUkycVkX/3DQ3tOic/4AAUQcI5LCGTwWHguCdfnFOjpOQPDnIhGFjfrv+T8PExWYm3XDMjLyNhdFZiQmwY7AA6bHY6GT/OFPPnJ0aPCRNFc9lk2mlV60p6Fb+3dLYS7bC/q7V7aXay1518uiD9ophw18dYbTaVydytN8o0unqltqxfWafUODsl+qqy+c3JuUxyHzOZRl/ULXd8nI1jl8RFjo8UJwt4EVw2fGRDMLC27jnl+GD2qLiDv7wEs6iGn8lqLSb6U0wScF+dmMPBcfJNJQi4CQLutJjwfx487Xi2dayr35fAwkics2AoKmYxxSxmuog/K/bcIyU9itdLqglH8WuVmu9qWu/KSiLz7j/UthqtQxsRMhnvXzQmgsMi+zOMAKEW2ZV1bTUN7UMeTI6POLz+ZUirgNje2uX4pxjLZa+YlOtRWg2Sspn/mTJayBz6XduhM9T6NlnBC4UR4v/OGjsnLoLw2c1NHa1qndtGVCbz0U6CmTdL0uMhrYYItcDauL3I6jDKcOWccVLPZ+sASuxsJbgenB4bLnBIHPLi+JyJkRLHx3dQN3eJPD6T8fDoUVkSgeNTVpvtOInR91aNjvDm6bRoN5eoI1CoBdb+Y+WOD47OSgxEXwCiNVsaVQQzS3KI/rw9kiMROj54ym83Il3DUOSl8dkF4QRD7GRmqHYRzWNIEnBDaUkNVUItsEqrCKbkxMeEBaIvAOnVGwmHpBN9u513vgWCC/xOnaHft1UsXuMx8Mfz0x2HwcjMMlcYzY4PjhLBNQGBUAusnj6CpSccFnxTBYb9SkZ7Up/PHZy1INO4HzPyEwmL6ZgyvQaj3uJqsgKCIHqi2QwiHy6ZQ1ioBZaR6C+EyfRmcBf4Tkf0t8pj4Cyf55TwnazF6bpwzeMwS3I477PakAaii2J7hHO7BqovgCFCLbBAUDET3e/3Zbh9ENNJnQaju9MZv5IQncv36QNzlRqSILCAH1G/zORvzgrLGP2wtIU8NtGqCbWZ+LoYeAECCwD/cpxnA7wGgQUAZQiXLnO9mh8LCEFgAUAZpYlguCqGR2qlJCADAgsAynQSTQFNFcKMKspAYAFADYPF6li6L4bLJhyJB96Bf0oAqLG1uVNlGjqpAiasUwsCCwAK7Gvv+bG21fHx0WEe1PADbsH0fwB8Vd6v+s+ZOsKnJodQtc9gMCIC69GXV0tEvq62RRAkMlz0+hM3ZqTEUNEpEAp0ZsuBjt61dTLCZ+/KSvK6oNXutp7SPqVvvUMG5rJenhg9KVRyc0QE1umKJqqaKsxJfvbBa6hqDdDa2X7VJ+UNzU5K9OVKhQtTYr1uvEtnICw744WSXuXGyyZR0lTAjYjAopDJ5TYBgAyl0fRxeYOPjVC1ueGgGoWGeX69z0AVdgaKDhRNZmKo7XyhZ6PFpjGbFUZzt84g0+oHttd31hqfgd+RGSxV2Cj/twogCCww3PQW6zaXm+gExM8NbYivKfoXLgP/z9TRsTwONc0BOxBYnsGcrLkFYEAin3tfbnJQpVUofWQhsDwzqSA90F0AwWtWbPjj+UH3CZmfGB3oLlBmRATW7dfOTEmI9L2d/Oyk+bMKqOgRCDUsDLsiKfrmjASqGhwdJhojJahb7ykxi3k5BBa93LF41uwpuYHuBQhB0Vx2nlQ4LkIyOUpK7RKcMVLhTemUxV/IGBGBBYCfLE6Nm5cYFehejCAQWGC4RXJYn8zw9craaLEu2VNMUY/OuS8neUyYyGixWWw2o9U6sPmrzYaYz/+fDp3h66pmx1dtbuqYHRcBy5uHDQQWGG4oivq+CQXlwtmsJJebj1XJ1Ycc9mdu0ei+qmq6PzfVz70Dfwm6zw0Awemh0WlxRJMVtrV0UbKGBpABgQUAKTwGfmUS8e22Xxvbh707IxQEVnBhoASz/AaGUQIItlEYMDsuwnHnQQRBTvYoDnb0BqJHIw4EVnBhE22faQl0XJiJOsAeeXsrCJiMVybkMBxWO1hstrdP11Yr1AHq1wgCgRVc2ERrfwJ+hkXYAf6I3JpYymbOSyCYx2BDkNdPVfcGdN/pkQACK7gwMJTjcOZiCHRgEe5eFe5tpSe6u8ZJ0Zg+g2l7a9At6g4xEFhBh88cGlhqU4C3DlYR7V4VxR2hu1dFcdmPjk4jXAW/vbULTrL8CgIr6EjZzCGPKIwBDqx+hw5gKJJINPw8QsyJjywMFzs+3m8wvXaqOhA9GikgsIJOOHvopZbWbOnQ6gPUnXO6HSrVhbFZoVS0xAsLk4kvDGuVmn1tPb63H0pV9ygEgRV0YohmJx7rlgeiL8hAXDqW1iScQjmiFEaIL46LIHxqU1OHR00xieb96ywBHrgMThBYQSeBT5AF21u6AvWVu7W50/HBeKJOjjT/zE0h/GXVKTWEW345wyFaiqgwEIwbAgisoJNOtPVmq0bnuKvwMDBZrevqCbaESRcJhr8zwYaD41clEW+htKZOVqMg+/sSO4xaIghSE4hfd/CDwAo6iQIu4Q24PVSMjHjqz/ZeA9G1SbYEAuucWXERaULiJdPk1+vEEP2627X6wA5cBicIrKDDxLCbRsU7Pr6tpatJpR3OnlhtNsId97IlgpF8i9Aej4G/NCGbSTTH4UBHL8m570kCHuEdjMOd/b73MMRAYAWjWbHhjt+6FpvtyePlw7ZmrVaheexIWYfDcDsLw+7LSRmePtCCmMVc4KQGMcm572wcI6wCuLGxbV9bjynQ04aDCgRWMGJgGOEdKJ3Z8tbp2jdKqvv9OSJrslp/aWh7+nh5PdEJ3dgI8SiiUbaRbGFKLOEpEvm573dlJTmepimM5v+U1j19rPxkj9xMtNhgBIICfkFqXmLU7rYewr1/j3T2n+xRjBLxE/icMDaLy8BxFLXYbAaLVWe2qE1mhcncozO0EY2AnO5V/vPg6WguW8xiCpkMHgPn4BgDw6w2m9Fi7Tea2rX6WqVG6WSqKoYiC2GnfgfhHNa/89PfL6s3OpwNbW/tmpcQ5XYZEwfHZ8dG7JR1Oz5Vo9S8WFzFxrFwNkvAZLAwlIF5tttcIp+7NDvZgxcEMQisIBXGZr05KfefB0/rica8DRZreb+qvF/labMWm02m0cs0Xo7m/l9Oap5U5N1rQ9uM2HCtxfLR2aF7sQ7Mff/P1NFuW7h+VPzuth5nlXwMFivhNxAZJ3sUIRNYcEkYvMI5rIfy0ggHdANiUUrsfNhwwbl5CVFjiNKc5Nz3aC77rcm5sbwRukKTJAisoDYjNvy9qWOEzACfCKMIcm9O8h1ZSYHtRvBbmEp8vUxy7numWLB8bJYg0L/uYBZqgcUlGixgswgm5vkJn2hOjUTkancD1xIF3Dcn516RFC1mefM5xlAkWyKYFRse4VU1GBaGXRQd9urEnCudzJB0zbHW3cBUAC+aGgJDUcLqrGSqdBEegxO15qmx4ZIZMeGOj9cpNdtbSI2+Jwq4X84svC0jESaOEAq1LP/4lbuWPvWZ1e6WyoyJ2RPz04atA0/+39XfbvhTo/3fYDmbxVz57K2+tJnA596Xk3JLesKW5s4tTR0qEtVmcBSdFCWZGx81Okw0sPLDhiA1CvWOlq6DnX1as8VtC0wMnRYTvmRUPOHaRpLypKIIDqvH7tY+hiJLqThTY6DoLRmJ31Q3X/h2wtlO1vfZuyUj8WSP3L7Il5jFzKVim2UGhj5RkN6q0TU43GAlzG5CPAa+OC1ucVrcmV7lzw2ysj6Vj6uyokOoEBBqC7lF4d29Ss3fN9cYOBYfE07Fd6cH+uRqpVo3+J8RYUIBdUuFTVZrm0bfrtX3GUxas2Vgkg6Oovj5yn8CJi5hMSM57GguG3f+F9KtN3TpjHKDUWWyaM1mqw0ZbIfDwKVsZhSHnSjgUnIqZLba+gzGwQ8ZB8fE1J3w9hmMg7mDoUgEh03yV600mnWWv1IbPV/Sh3AFsneMFqvSZLIvbM1E0TBv6x1qzOZ2jaHHYFQYTVqTRW8Z+mWDoyj290ccx1AcRZkYysQwBopyz98FThPxAz6qQJUQDCwAQKgKtTEsAEAIg8ACANAGBBYAgDYgsAAAtAGBBQCgDQgsAABtQGABAGgDAgsAQBsQWAAA2oDAAgDQBgQWAIA2ILAAALQBgQUAoA0ILAAAbUBgAQBoAwILAEAbEFgAANqAwAIA0AYEFgCANiCwAAC0AYEFAKANCCwAAG1AYAEAaAMCCwBAGxBYAADagMACANAGBBYAgDYgsAAAtAGBBQCgDQgsAABtQGABAGgDAgsAQBsQWAAA2oDAAgDQBgQWAIA2ILAAALQBgQUAoA0ILAAAbUBgAQBoAwILAEAbEFgAANqAwAIA0AYEFgCANiCwAAC0AYEFAKANCCwAAG1AYAEAaAMCCwBAGxBYAADagMACANAGBBYAgDYgsAAAtAGBBQCgDQgsAABtQGABAGgDAgsAQBsQWAAA2oDAAgDQBgQWAIA2ILAAALQBgQUAoA0ILAAAbUBgAQBoAwILAEAbEFgAANqAwAIA0AYEFgCANiCwAAC0AYEFAKANCCwAAG1AYAEAaAMCCwBAGxBYAADagMACANAGBBYAgDYgsAAAtAGBBQCgDQgsAABtQGABAGgDAgsAQBsQWAAA2oDAAgDQBgQWAIA2ILAAALQBgQUAoA0ILAAAbUBgAQBoAwILAEAbEFgAANqAwAIA0Mb/BwAA//91d0tBhQUU2AAAAABJRU5ErkJggg==;" vertex="1" parent="1">
          <mxGeometry x="567.5" y="220" width="45.5" height="45.5" as="geometry" />
        </mxCell>
        <mxCell id="n6Bw79Q_llv1yDib1XSp-16" value="" style="endArrow=classic;html=1;rounded=0;exitX=0.5;exitY=1;exitDx=0;exitDy=0;entryX=0.5;entryY=0;entryDx=0;entryDy=0;" edge="1" parent="1" source="IZiWBFXiaey_TxyXL_8r-1" target="IZiWBFXiaey_TxyXL_8r-2">
          <mxGeometry width="50" height="50" relative="1" as="geometry">
            <mxPoint x="250" y="400" as="sourcePoint" />
            <mxPoint x="300" y="350" as="targetPoint" />
          </mxGeometry>
        </mxCell>
        <mxCell id="n6Bw79Q_llv1yDib1XSp-17" value="" style="endArrow=classic;startArrow=classic;html=1;rounded=0;entryX=0.5;entryY=1;entryDx=0;entryDy=0;" edge="1" parent="1" source="IZiWBFXiaey_TxyXL_8r-1" target="IZiWBFXiaey_TxyXL_8r-3">
          <mxGeometry width="50" height="50" relative="1" as="geometry">
            <mxPoint x="160" y="480" as="sourcePoint" />
            <mxPoint x="210" y="430" as="targetPoint" />
          </mxGeometry>
        </mxCell>
      </root>
    </mxGraphModel>
  </diagram>
</mxfile>
